<?xml version="1.0" standalone="no"?>
<!DOCTYPE svg PUBLIC "-//W3C//DTD SVG 20010904//EN"
 "http://www.w3.org/TR/2001/REC-SVG-20010904/DTD/svg10.dtd">
<svg version="1.0" xmlns="http://www.w3.org/2000/svg"
 width="894.000000pt" height="894.000000pt" viewBox="0 0 894.000000 894.000000"
 preserveAspectRatio="xMidYMid meet">

<g transform="translate(0.000000,894.000000) scale(0.100000,-0.100000)"
fill="#000000" stroke="none">
<path d="M3238 7435 c-186 -26 -412 -78 -601 -139 -358 -117 -781 -329 -1073
-539 -63 -45 -81 -65 -130 -147 -126 -209 -262 -492 -394 -820 -101 -252 -288
-820 -270 -820 34 0 905 223 914 235 6 7 24 15 39 17 18 2 476 324 1310 923
1264 907 1282 920 1242 923 -116 10 -588 -37 -837 -83 -519 -96 -918 -236
-1520 -535 -108 -54 -199 -96 -202 -93 -15 15 311 274 506 403 342 226 695
376 1175 500 l43 11 -45 89 c-25 50 -49 90 -53 89 -4 -1 -51 -7 -104 -14z"/>
<path d="M5545 7360 l-44 -87 67 -18 c399 -103 759 -246 1038 -411 44 -25 87
-50 96 -55 14 -8 27 8 81 98 35 60 71 120 81 136 l18 27 -118 56 c-213 100
-262 120 -452 185 -215 73 -408 117 -620 143 l-103 13 -44 -87z"/>
<path d="M4447 7073 c-9 -8 -9 -1091 0 -2796 l6 -1336 85 142 c46 78 120 203
163 277 44 74 137 232 207 350 l128 215 -9 65 c-20 152 17 353 89 491 90 170
254 308 416 349 30 8 48 20 59 38 9 15 53 90 99 167 45 77 120 203 165 280 45
77 118 201 162 275 189 320 213 362 213 368 0 4 -12 14 -28 23 -15 9 -99 63
-187 119 -356 229 -1548 980 -1555 980 -3 0 -10 -3 -13 -7z"/>
<path d="M4610 7068 c10 -10 1501 -944 1614 -1010 27 -16 52 -26 56 -21 4 4
68 112 142 238 74 127 151 257 171 290 19 33 32 63 29 66 -15 14 -289 122
-429 170 -465 159 -922 243 -1428 265 -88 4 -158 4 -155 2z"/>
<path d="M3060 6089 c-712 -511 -1296 -933 -1298 -938 -2 -5 196 -620 439
-1367 243 -748 446 -1374 452 -1392 6 -18 15 -31 21 -29 6 2 279 70 606 151
1065 262 1074 264 1087 282 10 14 13 234 13 1069 0 1300 -11 3155 -19 3154 -3
-1 -589 -419 -1301 -930z m335 -1261 c104 -22 194 -76 291 -172 77 -77 98
-105 138 -186 64 -131 87 -228 87 -365 1 -239 -69 -415 -226 -571 -134 -134
-279 -191 -455 -181 -164 10 -278 63 -405 191 -64 65 -90 100 -128 176 -66
133 -88 226 -89 375 0 222 76 415 220 561 155 157 357 218 567 172z"/>
<path d="M1190 5009 c-244 -61 -445 -111 -447 -112 -3 -3 -87 -340 -108 -432
-53 -231 -96 -460 -135 -710 -12 -71 -23 -141 -25 -155 -3 -14 -14 -99 -25
-190 -11 -91 -22 -181 -25 -200 -5 -46 -35 -379 -39 -436 -1 -24 1 -41 5 -37
4 5 281 519 614 1143 334 624 620 1159 636 1188 25 45 27 52 12 51 -10 0 -218
-50 -463 -110z"/>
<path d="M1694 5038 c-9 -18 -307 -574 -661 -1236 -353 -662 -643 -1207 -643
-1211 0 -5 66 -73 148 -152 500 -488 1143 -792 1931 -914 91 -15 307 -32 318
-26 7 3 78 94 158 201 l146 195 -63 23 c-288 105 -614 276 -863 451 -258 181
-681 571 -620 571 3 0 36 -22 73 -49 170 -124 456 -291 659 -385 156 -72 295
-128 301 -121 3 3 -77 260 -178 573 -553 1715 -680 2105 -684 2109 -2 3 -12
-10 -22 -29z"/>
<path d="M4265 2680 c-116 -27 -1485 -358 -1499 -363 -11 -4 231 -77 349 -106
211 -52 497 -99 771 -126 l61 -6 60 103 c33 57 112 192 177 301 65 110 116
200 114 201 -2 2 -16 0 -33 -4z"/>
</g>
</svg>
